<?xml version="1.0" encoding="iso-8859-1"?><!-- Generator: Adobe Illustrator 19.1.1, SVG Export Plug-In . SVG Version: 6.00 Build 0)  --><svg xmlns="http://www.w3.org/2000/svg" xmlns:xlink="http://www.w3.org/1999/xlink" viewBox="0 0 50 50" width="130px" height="130px"><path d="M41.707,13.793l-11.5-11.5C30.02,2.105,29.766,2,29.5,2H11.491C9.566,2,8,3.561,8,5.479v38.422C8,46.161,9.845,48,12.113,48h25.774C40.155,48,42,46.161,42,43.901V14.5C42,14.235,41.895,13.98,41.707,13.793z M26,38h-9v-2h9V38z M33,34H17v-2h16V34z M33,30H17v-2h16V30z M33,26H17v-2h16V26z M31.667,14C30.748,14,30,13.252,30,12.333V4.914L39.086,14H31.667z"/></svg>