<?xml version="1.0" encoding="utf-8"?>
<svg fill="#000000" version="1.1" id="Capa_1" viewBox="0 0 35.00 35.00" stroke="#000000" stroke-width="0.00035" xmlns="http://www.w3.org/2000/svg">
  <defs/>
  <g id="SVGRepo_bgCarrier" stroke-width="0"/>
  <g id="SVGRepo_tracerCarrier" stroke-linecap="round" stroke-linejoin="round"/>
  <g id="SVGRepo_iconCarrier">
    <g>
      <path d="M 31.086 0 L 3.746 0.084 C 0.985 0.084 0.084 0.968 0.084 3.729 L -0.084 31.388 C -0.084 34.149 0.918 35 3.679 35 L 31.238 35 C 34 35 35.017 33.698 35.017 30.937 L 35.1 3.729 C 35.1 0.968 33.848 0 31.086 0 Z M 7.25 6.25 L 17.289 6.25 C 18.118 6.25 18.789 6.921 18.789 7.75 C 18.789 8.579 18.118 9.25 17.289 9.25 L 7.25 9.25 C 6.421 9.25 5.75 8.579 5.75 7.75 C 5.75 6.921 6.421 6.25 7.25 6.25 Z M 7.25 12.75 L 17.25 12.75 C 18.079 12.75 18.75 13.421 18.75 14.25 C 18.75 15.079 18.079 15.75 17.25 15.75 L 7.25 15.75 C 6.421 15.75 5.75 15.079 5.75 14.25 C 5.75 13.421 6.421 12.75 7.25 12.75 Z M 27.75 28.75 L 7.25 28.75 C 6.421 28.75 5.75 28.079 5.75 27.25 C 5.75 26.421 6.421 25.75 7.25 25.75 L 27.75 25.75 C 28.579 25.75 29.25 26.421 29.25 27.25 C 29.25 28.079 28.579 28.75 27.75 28.75 Z M 27.75 22.25 L 7.25 22.25 C 6.421 22.25 5.75 21.579 5.75 20.75 C 5.75 19.921 6.421 19.25 7.25 19.25 L 27.75 19.25 C 28.579 19.25 29.25 19.921 29.25 20.75 C 29.25 21.579 28.579 22.25 27.75 22.25 Z"/>
    </g>
  </g>
</svg>