<!-- Generated by IcoMoon.io -->
<svg version="1.1" xmlns="http://www.w3.org/2000/svg" viewBox="0 0 512 512">
<g id="icomoon-ignore">
</g>
<path fill="#000" d="M447.791 511.966h-383.766c-0.603 0.021-1.313 0.034-2.025 0.034-17.1 0-32.563-7.007-43.675-18.308l-0.009-0.009c-11.303-11.119-18.306-26.578-18.306-43.673 0-0.587 0.008-1.172 0.025-1.755l-0.002 0.086v-384.315c-0.021-0.603-0.034-1.313-0.034-2.025 0-17.1 7.008-32.563 18.308-43.675l0.009-0.009c11.12-11.309 26.584-18.317 43.684-18.317 0.712 0 1.421 0.012 2.127 0.036l-0.103-0.003h383.949c0.603-0.021 1.313-0.034 2.024-0.034 17.1 0 32.563 7.008 43.675 18.308l0.009 0.009c11.309 11.12 18.317 26.584 18.317 43.684 0 0.712-0.012 1.421-0.036 2.127l0.003-0.103v383.949c-0.207 35.322-28.837 63.889-64.164 63.991h-0.010zM392.942 380.875c1.445 0.139 3.123 0.217 4.82 0.217 9.724 0 18.843-2.591 26.704-7.12l-0.26 0.137c5.58-4.758 9.096-11.795 9.096-19.653 0-0.934-0.050-1.857-0.147-2.766l0.010 0.113v-198.922c0.001-0.099 0.002-0.214 0.002-0.331 0-7.971-3.291-15.173-8.589-20.323l-0.007-0.006c-5.041-5.302-12.147-8.6-20.023-8.6-0.224 0-0.447 0.003-0.67 0.008l0.033-0.001h-297.286c-0.099-0.001-0.215-0.001-0.331-0.001-7.971 0-15.174 3.291-20.323 8.588l-0.007 0.007c-5.302 5.098-8.595 12.251-8.595 20.174 0 0.107 0.001 0.213 0.001 0.32v-0.016 199.105c-0.001 0.091-0.001 0.197-0.001 0.303 0 7.923 3.293 15.075 8.585 20.164l0.009 0.009c5.156 5.304 12.358 8.595 20.329 8.595 0.117 0 0.233-0 0.349-0.002h-0.017zM124.177 366.979v-163.269l118.11 81.361zM382.703 373.745h-254.686l121.218-84.651c1.647 1.563 3.786 2.622 6.162 2.92l0.054 0.005c2.305-0.642 4.316-1.646 6.082-2.96l-0.048 0.035zM254.72 224.736l-126.703-93.793h254.137zM385.262 366.979l-118.11-81.909 118.11-81.361z"></path>
</svg>
